# MagicaVoxel @ Ephtracy

# group
o 

# material
mtllib stena2.mtl
usemtl palette

# normals
vn -1 0 0
vn 1 0 0
vn 0 0 1
vn 0 0 -1
vn 0 -1 0
vn 0 1 0

# texcoords
vt 0.373047 0.5
vt 0.537109 0.5
vt 0.888672 0.5

# verts
v -4.6 0.2 -9.68575e-08
v -4.6 0.2 -0.1
v -4.6 13.5 -9.68575e-08
v -4.6 13.5 -0.1
v -4.6 14.9 -9.68575e-08
v -4.6 14.9 -0.1
v -4.6 18.7 -9.68575e-08
v -4.6 18.7 -0.1
v -4.6 20 -9.68575e-08
v -4.6 20 -0.1
v -4.5 19.9 -0.1
v -4.5 19.9 -0.2
v -4.5 20 -0.1
v -4.5 20 -0.2
v -4.4 19.9 -0.2
v -4.4 19.9 -0.4
v -4.4 20 -0.2
v -4.4 20 -0.4
v -4.3 19.9 -0.4
v -4.3 19.9 -0.6
v -4.3 20 -0.4
v -4.3 20 -0.6
v -4.2 19.9 -0.6
v -4.2 19.9 -0.7
v -4.2 20 -0.6
v -4.2 20 -0.7
v -4.1 19.9 -0.7
v -4.1 19.9 -0.9
v -4.1 20 -0.7
v -4.1 20 -0.9
v -4 19.9 -0.9
v -4 19.9 -1.1
v -4 20 -0.9
v -4 20 -1.1
v -3.9 19.9 -1.1
v -3.9 19.9 -1.3
v -3.9 20 -1.1
v -3.9 20 -1.3
v -3.8 19.9 -1.3
v -3.8 19.9 -1.4
v -3.8 20 -1.3
v -3.8 20 -1.4
v -3.7 19.9 -1.4
v -3.7 19.9 -1.6
v -3.7 20 -1.4
v -3.7 20 -1.6
v -3.6 19.9 -1.6
v -3.6 19.9 -1.8
v -3.6 20 -1.6
v -3.6 20 -1.8
v -3.5 19.9 -1.8
v -3.5 19.9 -2
v -3.5 20 -1.8
v -3.5 20 -2
v -3.4 19.9 -2
v -3.4 19.9 -2.2
v -3.4 20 -2
v -3.4 20 -2.2
v -3.3 19.9 -2.2
v -3.3 19.9 -2.4
v -3.3 20 -2.2
v -3.3 20 -2.4
v -3.2 19.9 -2.4
v -3.2 19.9 -2.6
v -3.2 20 -2.4
v -3.2 20 -2.6
v -3.1 19.9 -2.6
v -3.1 19.9 -2.7
v -3.1 20 -2.6
v -3.1 20 -2.7
v -3 19.9 -2.7
v -3 19.9 -2.9
v -3 20 -2.7
v -3 20 -2.9
v -2.9 19.9 -2.9
v -2.9 19.9 -3.1
v -2.9 20 -2.9
v -2.9 20 -3.1
v -2.8 19.9 -3.1
v -2.8 19.9 -3.3
v -2.8 20 -3.1
v -2.8 20 -3.3
v -2.7 19.9 -3.3
v -2.7 19.9 -3.4
v -2.7 20 -3.3
v -2.7 20 -3.4
v -2.6 19.9 -3.4
v -2.6 19.9 -3.6
v -2.6 20 -3.4
v -2.6 20 -3.6
v -2.5 19.9 -3.6
v -2.5 19.9 -3.8
v -2.5 20 -3.6
v -2.5 20 -3.8
v -2.4 19.9 -3.8
v -2.4 19.9 -3.9
v -2.4 20 -3.8
v -2.4 20 -3.9
v -2.3 19.9 -3.9
v -2.3 19.9 -4
v -2.3 20 -3.9
v -2.3 20 -4
v 2.3 19.9 -3.9
v 2.3 19.9 -4
v 2.3 20 -3.9
v 2.3 20 -4
v 2.4 19.9 -3.8
v 2.4 19.9 -3.9
v 2.4 20 -3.8
v 2.4 20 -3.9
v 2.5 19.9 -3.6
v 2.5 19.9 -3.8
v 2.5 20 -3.6
v 2.5 20 -3.8
v 2.6 19.9 -3.4
v 2.6 19.9 -3.6
v 2.6 20 -3.4
v 2.6 20 -3.6
v 2.7 19.9 -3.3
v 2.7 19.9 -3.4
v 2.7 20 -3.3
v 2.7 20 -3.4
v 2.8 19.9 -3.1
v 2.8 19.9 -3.3
v 2.8 20 -3.1
v 2.8 20 -3.3
v 2.9 19.9 -2.9
v 2.9 19.9 -3.1
v 2.9 20 -2.9
v 2.9 20 -3.1
v 3 19.9 -2.7
v 3 19.9 -2.9
v 3 20 -2.7
v 3 20 -2.9
v 3.1 19.9 -2.6
v 3.1 19.9 -2.7
v 3.1 20 -2.6
v 3.1 20 -2.7
v 3.2 19.9 -2.4
v 3.2 19.9 -2.6
v 3.2 20 -2.4
v 3.2 20 -2.6
v 3.3 19.9 -2.2
v 3.3 19.9 -2.4
v 3.3 20 -2.2
v 3.3 20 -2.4
v 3.4 19.9 -2
v 3.4 19.9 -2.2
v 3.4 20 -2
v 3.4 20 -2.2
v 3.5 19.9 -1.8
v 3.5 19.9 -2
v 3.5 20 -1.8
v 3.5 20 -2
v 3.6 19.9 -1.6
v 3.6 19.9 -1.8
v 3.6 20 -1.6
v 3.6 20 -1.8
v 3.7 19.9 -1.4
v 3.7 19.9 -1.6
v 3.7 20 -1.4
v 3.7 20 -1.6
v 3.8 19.9 -1.3
v 3.8 19.9 -1.4
v 3.8 20 -1.3
v 3.8 20 -1.4
v 3.9 19.9 -1.1
v 3.9 19.9 -1.3
v 3.9 20 -1.1
v 3.9 20 -1.3
v 4 19.9 -0.9
v 4 19.9 -1.1
v 4 20 -0.9
v 4 20 -1.1
v 4.1 19.9 -0.7
v 4.1 19.9 -0.9
v 4.1 20 -0.7
v 4.1 20 -0.9
v 4.2 19.9 -0.6
v 4.2 19.9 -0.7
v 4.2 20 -0.6
v 4.2 20 -0.7
v 4.3 19.9 -0.4
v 4.3 19.9 -0.6
v 4.3 20 -0.4
v 4.3 20 -0.6
v 4.4 19.9 -0.2
v 4.4 19.9 -0.4
v 4.4 20 -0.2
v 4.4 20 -0.4
v 4.5 19.9 -0.1
v 4.5 19.9 -0.2
v 4.5 20 -0.1
v 4.5 20 -0.2
v 4.6 0.2 -9.68575e-08
v 4.6 0.2 -0.1
v 4.6 13.5 -9.68575e-08
v 4.6 13.5 -0.1
v 4.6 14.9 -9.68575e-08
v 4.6 14.9 -0.1
v 4.6 18.7 -9.68575e-08
v 4.6 18.7 -0.1
v 4.6 20 -9.68575e-08
v 4.6 20 -0.1
v -4.6 0.2 -9.68575e-08
v -4.6 13.5 -9.68575e-08
v -4.6 14.9 -9.68575e-08
v -4.6 18.7 -9.68575e-08
v -4.6 20 -9.68575e-08
v 4.6 0.2 -9.68575e-08
v 4.6 13.5 -9.68575e-08
v 4.6 14.9 -9.68575e-08
v 4.6 18.7 -9.68575e-08
v 4.6 20 -9.68575e-08
v -4.6 0.2 -0.1
v -4.6 13.5 -0.1
v -4.6 14.9 -0.1
v -4.6 18.7 -0.1
v -4.6 20 -0.1
v -4.5 19.9 -0.1
v -4.5 20 -0.1
v 4.5 19.9 -0.1
v 4.5 20 -0.1
v 4.6 0.2 -0.1
v 4.6 13.5 -0.1
v 4.6 14.9 -0.1
v 4.6 18.7 -0.1
v 4.6 20 -0.1
v -4.5 19.9 -0.2
v -4.5 20 -0.2
v -4.4 19.9 -0.2
v -4.4 20 -0.2
v 4.4 19.9 -0.2
v 4.4 20 -0.2
v 4.5 19.9 -0.2
v 4.5 20 -0.2
v -4.4 19.9 -0.4
v -4.4 20 -0.4
v -4.3 19.9 -0.4
v -4.3 20 -0.4
v 4.3 19.9 -0.4
v 4.3 20 -0.4
v 4.4 19.9 -0.4
v 4.4 20 -0.4
v -4.3 19.9 -0.6
v -4.3 20 -0.6
v -4.2 19.9 -0.6
v -4.2 20 -0.6
v 4.2 19.9 -0.6
v 4.2 20 -0.6
v 4.3 19.9 -0.6
v 4.3 20 -0.6
v -4.2 19.9 -0.7
v -4.2 20 -0.7
v -4.1 19.9 -0.7
v -4.1 20 -0.7
v 4.1 19.9 -0.7
v 4.1 20 -0.7
v 4.2 19.9 -0.7
v 4.2 20 -0.7
v -4.1 19.9 -0.9
v -4.1 20 -0.9
v -4 19.9 -0.9
v -4 20 -0.9
v 4 19.9 -0.9
v 4 20 -0.9
v 4.1 19.9 -0.9
v 4.1 20 -0.9
v -4 19.9 -1.1
v -4 20 -1.1
v -3.9 19.9 -1.1
v -3.9 20 -1.1
v 3.9 19.9 -1.1
v 3.9 20 -1.1
v 4 19.9 -1.1
v 4 20 -1.1
v -3.9 19.9 -1.3
v -3.9 20 -1.3
v -3.8 19.9 -1.3
v -3.8 20 -1.3
v 3.8 19.9 -1.3
v 3.8 20 -1.3
v 3.9 19.9 -1.3
v 3.9 20 -1.3
v -3.8 19.9 -1.4
v -3.8 20 -1.4
v -3.7 19.9 -1.4
v -3.7 20 -1.4
v 3.7 19.9 -1.4
v 3.7 20 -1.4
v 3.8 19.9 -1.4
v 3.8 20 -1.4
v -3.7 19.9 -1.6
v -3.7 20 -1.6
v -3.6 19.9 -1.6
v -3.6 20 -1.6
v 3.6 19.9 -1.6
v 3.6 20 -1.6
v 3.7 19.9 -1.6
v 3.7 20 -1.6
v -3.6 19.9 -1.8
v -3.6 20 -1.8
v -3.5 19.9 -1.8
v -3.5 20 -1.8
v 3.5 19.9 -1.8
v 3.5 20 -1.8
v 3.6 19.9 -1.8
v 3.6 20 -1.8
v -3.5 19.9 -2
v -3.5 20 -2
v -3.4 19.9 -2
v -3.4 20 -2
v 3.4 19.9 -2
v 3.4 20 -2
v 3.5 19.9 -2
v 3.5 20 -2
v -3.4 19.9 -2.2
v -3.4 20 -2.2
v -3.3 19.9 -2.2
v -3.3 20 -2.2
v 3.3 19.9 -2.2
v 3.3 20 -2.2
v 3.4 19.9 -2.2
v 3.4 20 -2.2
v -3.3 19.9 -2.4
v -3.3 20 -2.4
v -3.2 19.9 -2.4
v -3.2 20 -2.4
v 3.2 19.9 -2.4
v 3.2 20 -2.4
v 3.3 19.9 -2.4
v 3.3 20 -2.4
v -3.2 19.9 -2.6
v -3.2 20 -2.6
v -3.1 19.9 -2.6
v -3.1 20 -2.6
v 3.1 19.9 -2.6
v 3.1 20 -2.6
v 3.2 19.9 -2.6
v 3.2 20 -2.6
v -3.1 19.9 -2.7
v -3.1 20 -2.7
v -3 19.9 -2.7
v -3 20 -2.7
v 3 19.9 -2.7
v 3 20 -2.7
v 3.1 19.9 -2.7
v 3.1 20 -2.7
v -3 19.9 -2.9
v -3 20 -2.9
v -2.9 19.9 -2.9
v -2.9 20 -2.9
v 2.9 19.9 -2.9
v 2.9 20 -2.9
v 3 19.9 -2.9
v 3 20 -2.9
v -2.9 19.9 -3.1
v -2.9 20 -3.1
v -2.8 19.9 -3.1
v -2.8 20 -3.1
v 2.8 19.9 -3.1
v 2.8 20 -3.1
v 2.9 19.9 -3.1
v 2.9 20 -3.1
v -2.8 19.9 -3.3
v -2.8 20 -3.3
v -2.7 19.9 -3.3
v -2.7 20 -3.3
v 2.7 19.9 -3.3
v 2.7 20 -3.3
v 2.8 19.9 -3.3
v 2.8 20 -3.3
v -2.7 19.9 -3.4
v -2.7 20 -3.4
v -2.6 19.9 -3.4
v -2.6 20 -3.4
v 2.6 19.9 -3.4
v 2.6 20 -3.4
v 2.7 19.9 -3.4
v 2.7 20 -3.4
v -2.6 19.9 -3.6
v -2.6 20 -3.6
v -2.5 19.9 -3.6
v -2.5 20 -3.6
v 2.5 19.9 -3.6
v 2.5 20 -3.6
v 2.6 19.9 -3.6
v 2.6 20 -3.6
v -2.5 19.9 -3.8
v -2.5 20 -3.8
v -2.4 19.9 -3.8
v -2.4 20 -3.8
v 2.4 19.9 -3.8
v 2.4 20 -3.8
v 2.5 19.9 -3.8
v 2.5 20 -3.8
v -2.4 19.9 -3.9
v -2.4 20 -3.9
v -2.3 19.9 -3.9
v -2.3 20 -3.9
v 2.3 19.9 -3.9
v 2.3 20 -3.9
v 2.4 19.9 -3.9
v 2.4 20 -3.9
v -2.3 19.9 -4
v -2.3 20 -4
v 2.3 19.9 -4
v 2.3 20 -4
v -4.6 0.2 -9.68575e-08
v 4.6 0.2 -9.68575e-08
v -4.6 0.2 -0.1
v 4.6 0.2 -0.1
v -4.5 19.9 -0.1
v 4.5 19.9 -0.1
v -4.5 19.9 -0.2
v -4.4 19.9 -0.2
v 4.4 19.9 -0.2
v 4.5 19.9 -0.2
v -4.4 19.9 -0.4
v -4.3 19.9 -0.4
v 4.3 19.9 -0.4
v 4.4 19.9 -0.4
v -4.3 19.9 -0.6
v -4.2 19.9 -0.6
v 4.2 19.9 -0.6
v 4.3 19.9 -0.6
v -4.2 19.9 -0.7
v -4.1 19.9 -0.7
v 4.1 19.9 -0.7
v 4.2 19.9 -0.7
v -4.1 19.9 -0.9
v -4 19.9 -0.9
v 4 19.9 -0.9
v 4.1 19.9 -0.9
v -4 19.9 -1.1
v -3.9 19.9 -1.1
v 3.9 19.9 -1.1
v 4 19.9 -1.1
v -3.9 19.9 -1.3
v -3.8 19.9 -1.3
v 3.8 19.9 -1.3
v 3.9 19.9 -1.3
v -3.8 19.9 -1.4
v -3.7 19.9 -1.4
v 3.7 19.9 -1.4
v 3.8 19.9 -1.4
v -3.7 19.9 -1.6
v -3.6 19.9 -1.6
v 3.6 19.9 -1.6
v 3.7 19.9 -1.6
v -3.6 19.9 -1.8
v -3.5 19.9 -1.8
v 3.5 19.9 -1.8
v 3.6 19.9 -1.8
v -3.5 19.9 -2
v -3.4 19.9 -2
v 3.4 19.9 -2
v 3.5 19.9 -2
v -3.4 19.9 -2.2
v -3.3 19.9 -2.2
v 3.3 19.9 -2.2
v 3.4 19.9 -2.2
v -3.3 19.9 -2.4
v -3.2 19.9 -2.4
v 3.2 19.9 -2.4
v 3.3 19.9 -2.4
v -3.2 19.9 -2.6
v -3.1 19.9 -2.6
v 3.1 19.9 -2.6
v 3.2 19.9 -2.6
v -3.1 19.9 -2.7
v -3 19.9 -2.7
v 3 19.9 -2.7
v 3.1 19.9 -2.7
v -3 19.9 -2.9
v -2.9 19.9 -2.9
v 2.9 19.9 -2.9
v 3 19.9 -2.9
v -2.9 19.9 -3.1
v -2.8 19.9 -3.1
v 2.8 19.9 -3.1
v 2.9 19.9 -3.1
v -2.8 19.9 -3.3
v -2.7 19.9 -3.3
v 2.7 19.9 -3.3
v 2.8 19.9 -3.3
v -2.7 19.9 -3.4
v -2.6 19.9 -3.4
v 2.6 19.9 -3.4
v 2.7 19.9 -3.4
v -2.6 19.9 -3.6
v -2.5 19.9 -3.6
v 2.5 19.9 -3.6
v 2.6 19.9 -3.6
v -2.5 19.9 -3.8
v -2.4 19.9 -3.8
v 2.4 19.9 -3.8
v 2.5 19.9 -3.8
v -2.4 19.9 -3.9
v -2.3 19.9 -3.9
v 2.3 19.9 -3.9
v 2.4 19.9 -3.9
v -2.3 19.9 -4
v 2.3 19.9 -4
v -4.6 20 -9.68575e-08
v 4.6 20 -9.68575e-08
v -4.6 20 -0.1
v -4.5 20 -0.1
v 4.5 20 -0.1
v 4.6 20 -0.1
v -4.5 20 -0.2
v -4.4 20 -0.2
v 4.4 20 -0.2
v 4.5 20 -0.2
v -4.4 20 -0.4
v -4.3 20 -0.4
v 4.3 20 -0.4
v 4.4 20 -0.4
v -4.3 20 -0.6
v -4.2 20 -0.6
v 4.2 20 -0.6
v 4.3 20 -0.6
v -4.2 20 -0.7
v -4.1 20 -0.7
v 4.1 20 -0.7
v 4.2 20 -0.7
v -4.1 20 -0.9
v -4 20 -0.9
v 4 20 -0.9
v 4.1 20 -0.9
v -4 20 -1.1
v -3.9 20 -1.1
v 3.9 20 -1.1
v 4 20 -1.1
v -3.9 20 -1.3
v -3.8 20 -1.3
v 3.8 20 -1.3
v 3.9 20 -1.3
v -3.8 20 -1.4
v -3.7 20 -1.4
v 3.7 20 -1.4
v 3.8 20 -1.4
v -3.7 20 -1.6
v -3.6 20 -1.6
v 3.6 20 -1.6
v 3.7 20 -1.6
v -3.6 20 -1.8
v -3.5 20 -1.8
v 3.5 20 -1.8
v 3.6 20 -1.8
v -3.5 20 -2
v -3.4 20 -2
v 3.4 20 -2
v 3.5 20 -2
v -3.4 20 -2.2
v -3.3 20 -2.2
v 3.3 20 -2.2
v 3.4 20 -2.2
v -3.3 20 -2.4
v -3.2 20 -2.4
v 3.2 20 -2.4
v 3.3 20 -2.4
v -3.2 20 -2.6
v -3.1 20 -2.6
v 3.1 20 -2.6
v 3.2 20 -2.6
v -3.1 20 -2.7
v -3 20 -2.7
v 3 20 -2.7
v 3.1 20 -2.7
v -3 20 -2.9
v -2.9 20 -2.9
v 2.9 20 -2.9
v 3 20 -2.9
v -2.9 20 -3.1
v -2.8 20 -3.1
v 2.8 20 -3.1
v 2.9 20 -3.1
v -2.8 20 -3.3
v -2.7 20 -3.3
v 2.7 20 -3.3
v 2.8 20 -3.3
v -2.7 20 -3.4
v -2.6 20 -3.4
v 2.6 20 -3.4
v 2.7 20 -3.4
v -2.6 20 -3.6
v -2.5 20 -3.6
v 2.5 20 -3.6
v 2.6 20 -3.6
v -2.5 20 -3.8
v -2.4 20 -3.8
v 2.4 20 -3.8
v 2.5 20 -3.8
v -2.4 20 -3.9
v -2.3 20 -3.9
v 2.3 20 -3.9
v 2.4 20 -3.9
v -2.3 20 -4
v 2.3 20 -4

# faces
f 3/2/1 2/2/1 1/2/1
f 4/2/1 2/2/1 3/2/1
f 5/1/1 4/1/1 3/1/1
f 6/1/1 4/1/1 5/1/1
f 7/2/1 6/2/1 5/2/1
f 8/2/1 6/2/1 7/2/1
f 9/3/1 8/3/1 7/3/1
f 10/3/1 8/3/1 9/3/1
f 13/3/1 12/3/1 11/3/1
f 14/3/1 12/3/1 13/3/1
f 17/3/1 16/3/1 15/3/1
f 18/3/1 16/3/1 17/3/1
f 21/3/1 20/3/1 19/3/1
f 22/3/1 20/3/1 21/3/1
f 25/3/1 24/3/1 23/3/1
f 26/3/1 24/3/1 25/3/1
f 29/3/1 28/3/1 27/3/1
f 30/3/1 28/3/1 29/3/1
f 33/3/1 32/3/1 31/3/1
f 34/3/1 32/3/1 33/3/1
f 37/3/1 36/3/1 35/3/1
f 38/3/1 36/3/1 37/3/1
f 41/3/1 40/3/1 39/3/1
f 42/3/1 40/3/1 41/3/1
f 45/3/1 44/3/1 43/3/1
f 46/3/1 44/3/1 45/3/1
f 49/3/1 48/3/1 47/3/1
f 50/3/1 48/3/1 49/3/1
f 53/3/1 52/3/1 51/3/1
f 54/3/1 52/3/1 53/3/1
f 57/3/1 56/3/1 55/3/1
f 58/3/1 56/3/1 57/3/1
f 61/3/1 60/3/1 59/3/1
f 62/3/1 60/3/1 61/3/1
f 65/3/1 64/3/1 63/3/1
f 66/3/1 64/3/1 65/3/1
f 69/3/1 68/3/1 67/3/1
f 70/3/1 68/3/1 69/3/1
f 73/3/1 72/3/1 71/3/1
f 74/3/1 72/3/1 73/3/1
f 77/3/1 76/3/1 75/3/1
f 78/3/1 76/3/1 77/3/1
f 81/3/1 80/3/1 79/3/1
f 82/3/1 80/3/1 81/3/1
f 85/3/1 84/3/1 83/3/1
f 86/3/1 84/3/1 85/3/1
f 89/3/1 88/3/1 87/3/1
f 90/3/1 88/3/1 89/3/1
f 93/3/1 92/3/1 91/3/1
f 94/3/1 92/3/1 93/3/1
f 97/3/1 96/3/1 95/3/1
f 98/3/1 96/3/1 97/3/1
f 101/3/1 100/3/1 99/3/1
f 102/3/1 100/3/1 101/3/1
f 103/3/2 104/3/2 105/3/2
f 105/3/2 104/3/2 106/3/2
f 107/3/2 108/3/2 109/3/2
f 109/3/2 108/3/2 110/3/2
f 111/3/2 112/3/2 113/3/2
f 113/3/2 112/3/2 114/3/2
f 115/3/2 116/3/2 117/3/2
f 117/3/2 116/3/2 118/3/2
f 119/3/2 120/3/2 121/3/2
f 121/3/2 120/3/2 122/3/2
f 123/3/2 124/3/2 125/3/2
f 125/3/2 124/3/2 126/3/2
f 127/3/2 128/3/2 129/3/2
f 129/3/2 128/3/2 130/3/2
f 131/3/2 132/3/2 133/3/2
f 133/3/2 132/3/2 134/3/2
f 135/3/2 136/3/2 137/3/2
f 137/3/2 136/3/2 138/3/2
f 139/3/2 140/3/2 141/3/2
f 141/3/2 140/3/2 142/3/2
f 143/3/2 144/3/2 145/3/2
f 145/3/2 144/3/2 146/3/2
f 147/3/2 148/3/2 149/3/2
f 149/3/2 148/3/2 150/3/2
f 151/3/2 152/3/2 153/3/2
f 153/3/2 152/3/2 154/3/2
f 155/3/2 156/3/2 157/3/2
f 157/3/2 156/3/2 158/3/2
f 159/3/2 160/3/2 161/3/2
f 161/3/2 160/3/2 162/3/2
f 163/3/2 164/3/2 165/3/2
f 165/3/2 164/3/2 166/3/2
f 167/3/2 168/3/2 169/3/2
f 169/3/2 168/3/2 170/3/2
f 171/3/2 172/3/2 173/3/2
f 173/3/2 172/3/2 174/3/2
f 175/3/2 176/3/2 177/3/2
f 177/3/2 176/3/2 178/3/2
f 179/3/2 180/3/2 181/3/2
f 181/3/2 180/3/2 182/3/2
f 183/3/2 184/3/2 185/3/2
f 185/3/2 184/3/2 186/3/2
f 187/3/2 188/3/2 189/3/2
f 189/3/2 188/3/2 190/3/2
f 191/3/2 192/3/2 193/3/2
f 193/3/2 192/3/2 194/3/2
f 195/2/2 196/2/2 197/2/2
f 197/2/2 196/2/2 198/2/2
f 197/1/2 198/1/2 199/1/2
f 199/1/2 198/1/2 200/1/2
f 199/2/2 200/2/2 201/2/2
f 201/2/2 200/2/2 202/2/2
f 201/3/2 202/3/2 203/3/2
f 203/3/2 202/3/2 204/3/2
f 210/2/3 206/2/3 205/2/3
f 211/1/3 207/1/3 206/1/3
f 211/2/3 206/2/3 210/2/3
f 212/2/3 208/2/3 207/2/3
f 212/1/3 207/1/3 211/1/3
f 213/3/3 209/3/3 208/3/3
f 213/2/3 208/2/3 212/2/3
f 214/3/3 209/3/3 213/3/3
f 218/3/4 219/3/4 220/3/4
f 220/3/4 219/3/4 221/3/4
f 218/3/4 220/3/4 222/3/4
f 215/2/4 216/2/4 224/2/4
f 216/1/4 217/1/4 225/1/4
f 224/2/4 216/2/4 225/2/4
f 217/2/4 218/2/4 226/2/4
f 225/1/4 217/1/4 226/1/4
f 222/3/4 223/3/4 227/3/4
f 226/2/4 218/2/4 227/2/4
f 218/3/4 222/3/4 227/3/4
f 227/3/4 223/3/4 228/3/4
f 229/3/4 230/3/4 231/3/4
f 231/3/4 230/3/4 232/3/4
f 233/3/4 234/3/4 235/3/4
f 235/3/4 234/3/4 236/3/4
f 237/3/4 238/3/4 239/3/4
f 239/3/4 238/3/4 240/3/4
f 241/3/4 242/3/4 243/3/4
f 243/3/4 242/3/4 244/3/4
f 245/3/4 246/3/4 247/3/4
f 247/3/4 246/3/4 248/3/4
f 249/3/4 250/3/4 251/3/4
f 251/3/4 250/3/4 252/3/4
f 253/3/4 254/3/4 255/3/4
f 255/3/4 254/3/4 256/3/4
f 257/3/4 258/3/4 259/3/4
f 259/3/4 258/3/4 260/3/4
f 261/3/4 262/3/4 263/3/4
f 263/3/4 262/3/4 264/3/4
f 265/3/4 266/3/4 267/3/4
f 267/3/4 266/3/4 268/3/4
f 269/3/4 270/3/4 271/3/4
f 271/3/4 270/3/4 272/3/4
f 273/3/4 274/3/4 275/3/4
f 275/3/4 274/3/4 276/3/4
f 277/3/4 278/3/4 279/3/4
f 279/3/4 278/3/4 280/3/4
f 281/3/4 282/3/4 283/3/4
f 283/3/4 282/3/4 284/3/4
f 285/3/4 286/3/4 287/3/4
f 287/3/4 286/3/4 288/3/4
f 289/3/4 290/3/4 291/3/4
f 291/3/4 290/3/4 292/3/4
f 293/3/4 294/3/4 295/3/4
f 295/3/4 294/3/4 296/3/4
f 297/3/4 298/3/4 299/3/4
f 299/3/4 298/3/4 300/3/4
f 301/3/4 302/3/4 303/3/4
f 303/3/4 302/3/4 304/3/4
f 305/3/4 306/3/4 307/3/4
f 307/3/4 306/3/4 308/3/4
f 309/3/4 310/3/4 311/3/4
f 311/3/4 310/3/4 312/3/4
f 313/3/4 314/3/4 315/3/4
f 315/3/4 314/3/4 316/3/4
f 317/3/4 318/3/4 319/3/4
f 319/3/4 318/3/4 320/3/4
f 321/3/4 322/3/4 323/3/4
f 323/3/4 322/3/4 324/3/4
f 325/3/4 326/3/4 327/3/4
f 327/3/4 326/3/4 328/3/4
f 329/3/4 330/3/4 331/3/4
f 331/3/4 330/3/4 332/3/4
f 333/3/4 334/3/4 335/3/4
f 335/3/4 334/3/4 336/3/4
f 337/3/4 338/3/4 339/3/4
f 339/3/4 338/3/4 340/3/4
f 341/3/4 342/3/4 343/3/4
f 343/3/4 342/3/4 344/3/4
f 345/3/4 346/3/4 347/3/4
f 347/3/4 346/3/4 348/3/4
f 349/3/4 350/3/4 351/3/4
f 351/3/4 350/3/4 352/3/4
f 353/3/4 354/3/4 355/3/4
f 355/3/4 354/3/4 356/3/4
f 357/3/4 358/3/4 359/3/4
f 359/3/4 358/3/4 360/3/4
f 361/3/4 362/3/4 363/3/4
f 363/3/4 362/3/4 364/3/4
f 365/3/4 366/3/4 367/3/4
f 367/3/4 366/3/4 368/3/4
f 369/3/4 370/3/4 371/3/4
f 371/3/4 370/3/4 372/3/4
f 373/3/4 374/3/4 375/3/4
f 375/3/4 374/3/4 376/3/4
f 377/3/4 378/3/4 379/3/4
f 379/3/4 378/3/4 380/3/4
f 381/3/4 382/3/4 383/3/4
f 383/3/4 382/3/4 384/3/4
f 385/3/4 386/3/4 387/3/4
f 387/3/4 386/3/4 388/3/4
f 389/3/4 390/3/4 391/3/4
f 391/3/4 390/3/4 392/3/4
f 393/3/4 394/3/4 395/3/4
f 395/3/4 394/3/4 396/3/4
f 397/3/4 398/3/4 399/3/4
f 399/3/4 398/3/4 400/3/4
f 401/3/4 402/3/4 403/3/4
f 403/3/4 402/3/4 404/3/4
f 405/3/4 406/3/4 407/3/4
f 407/3/4 406/3/4 408/3/4
f 411/2/5 410/2/5 409/2/5
f 412/2/5 410/2/5 411/2/5
f 415/3/5 414/3/5 413/3/5
f 416/3/5 414/3/5 415/3/5
f 417/3/5 414/3/5 416/3/5
f 418/3/5 414/3/5 417/3/5
f 419/3/5 417/3/5 416/3/5
f 420/3/5 417/3/5 419/3/5
f 421/3/5 417/3/5 420/3/5
f 422/3/5 417/3/5 421/3/5
f 423/3/5 421/3/5 420/3/5
f 424/3/5 421/3/5 423/3/5
f 425/3/5 421/3/5 424/3/5
f 426/3/5 421/3/5 425/3/5
f 427/3/5 425/3/5 424/3/5
f 428/3/5 425/3/5 427/3/5
f 429/3/5 425/3/5 428/3/5
f 430/3/5 425/3/5 429/3/5
f 431/3/5 429/3/5 428/3/5
f 432/3/5 429/3/5 431/3/5
f 433/3/5 429/3/5 432/3/5
f 434/3/5 429/3/5 433/3/5
f 435/3/5 433/3/5 432/3/5
f 436/3/5 433/3/5 435/3/5
f 437/3/5 433/3/5 436/3/5
f 438/3/5 433/3/5 437/3/5
f 439/3/5 437/3/5 436/3/5
f 440/3/5 437/3/5 439/3/5
f 441/3/5 437/3/5 440/3/5
f 442/3/5 437/3/5 441/3/5
f 443/3/5 441/3/5 440/3/5
f 444/3/5 441/3/5 443/3/5
f 445/3/5 441/3/5 444/3/5
f 446/3/5 441/3/5 445/3/5
f 447/3/5 445/3/5 444/3/5
f 448/3/5 445/3/5 447/3/5
f 449/3/5 445/3/5 448/3/5
f 450/3/5 445/3/5 449/3/5
f 451/3/5 449/3/5 448/3/5
f 452/3/5 449/3/5 451/3/5
f 453/3/5 449/3/5 452/3/5
f 454/3/5 449/3/5 453/3/5
f 455/3/5 453/3/5 452/3/5
f 456/3/5 453/3/5 455/3/5
f 457/3/5 453/3/5 456/3/5
f 458/3/5 453/3/5 457/3/5
f 459/3/5 457/3/5 456/3/5
f 460/3/5 457/3/5 459/3/5
f 461/3/5 457/3/5 460/3/5
f 462/3/5 457/3/5 461/3/5
f 463/3/5 461/3/5 460/3/5
f 464/3/5 461/3/5 463/3/5
f 465/3/5 461/3/5 464/3/5
f 466/3/5 461/3/5 465/3/5
f 467/3/5 465/3/5 464/3/5
f 468/3/5 465/3/5 467/3/5
f 469/3/5 465/3/5 468/3/5
f 470/3/5 465/3/5 469/3/5
f 471/3/5 469/3/5 468/3/5
f 472/3/5 469/3/5 471/3/5
f 473/3/5 469/3/5 472/3/5
f 474/3/5 469/3/5 473/3/5
f 475/3/5 473/3/5 472/3/5
f 476/3/5 473/3/5 475/3/5
f 477/3/5 473/3/5 476/3/5
f 478/3/5 473/3/5 477/3/5
f 479/3/5 477/3/5 476/3/5
f 480/3/5 477/3/5 479/3/5
f 481/3/5 477/3/5 480/3/5
f 482/3/5 477/3/5 481/3/5
f 483/3/5 481/3/5 480/3/5
f 484/3/5 481/3/5 483/3/5
f 485/3/5 481/3/5 484/3/5
f 486/3/5 481/3/5 485/3/5
f 487/3/5 485/3/5 484/3/5
f 488/3/5 485/3/5 487/3/5
f 489/3/5 485/3/5 488/3/5
f 490/3/5 485/3/5 489/3/5
f 491/3/5 489/3/5 488/3/5
f 492/3/5 489/3/5 491/3/5
f 493/3/5 489/3/5 492/3/5
f 494/3/5 489/3/5 493/3/5
f 495/3/5 493/3/5 492/3/5
f 496/3/5 493/3/5 495/3/5
f 497/3/5 493/3/5 496/3/5
f 498/3/5 493/3/5 497/3/5
f 499/3/5 497/3/5 496/3/5
f 500/3/5 497/3/5 499/3/5
f 501/3/5 497/3/5 500/3/5
f 502/3/5 497/3/5 501/3/5
f 503/3/5 501/3/5 500/3/5
f 504/3/5 501/3/5 503/3/5
f 505/3/6 506/3/6 507/3/6
f 507/3/6 506/3/6 508/3/6
f 508/3/6 506/3/6 509/3/6
f 509/3/6 506/3/6 510/3/6
f 508/3/6 509/3/6 511/3/6
f 511/3/6 509/3/6 512/3/6
f 512/3/6 509/3/6 513/3/6
f 513/3/6 509/3/6 514/3/6
f 512/3/6 513/3/6 515/3/6
f 515/3/6 513/3/6 516/3/6
f 516/3/6 513/3/6 517/3/6
f 517/3/6 513/3/6 518/3/6
f 516/3/6 517/3/6 519/3/6
f 519/3/6 517/3/6 520/3/6
f 520/3/6 517/3/6 521/3/6
f 521/3/6 517/3/6 522/3/6
f 520/3/6 521/3/6 523/3/6
f 523/3/6 521/3/6 524/3/6
f 524/3/6 521/3/6 525/3/6
f 525/3/6 521/3/6 526/3/6
f 524/3/6 525/3/6 527/3/6
f 527/3/6 525/3/6 528/3/6
f 528/3/6 525/3/6 529/3/6
f 529/3/6 525/3/6 530/3/6
f 528/3/6 529/3/6 531/3/6
f 531/3/6 529/3/6 532/3/6
f 532/3/6 529/3/6 533/3/6
f 533/3/6 529/3/6 534/3/6
f 532/3/6 533/3/6 535/3/6
f 535/3/6 533/3/6 536/3/6
f 536/3/6 533/3/6 537/3/6
f 537/3/6 533/3/6 538/3/6
f 536/3/6 537/3/6 539/3/6
f 539/3/6 537/3/6 540/3/6
f 540/3/6 537/3/6 541/3/6
f 541/3/6 537/3/6 542/3/6
f 540/3/6 541/3/6 543/3/6
f 543/3/6 541/3/6 544/3/6
f 544/3/6 541/3/6 545/3/6
f 545/3/6 541/3/6 546/3/6
f 544/3/6 545/3/6 547/3/6
f 547/3/6 545/3/6 548/3/6
f 548/3/6 545/3/6 549/3/6
f 549/3/6 545/3/6 550/3/6
f 548/3/6 549/3/6 551/3/6
f 551/3/6 549/3/6 552/3/6
f 552/3/6 549/3/6 553/3/6
f 553/3/6 549/3/6 554/3/6
f 552/3/6 553/3/6 555/3/6
f 555/3/6 553/3/6 556/3/6
f 556/3/6 553/3/6 557/3/6
f 557/3/6 553/3/6 558/3/6
f 556/3/6 557/3/6 559/3/6
f 559/3/6 557/3/6 560/3/6
f 560/3/6 557/3/6 561/3/6
f 561/3/6 557/3/6 562/3/6
f 560/3/6 561/3/6 563/3/6
f 563/3/6 561/3/6 564/3/6
f 564/3/6 561/3/6 565/3/6
f 565/3/6 561/3/6 566/3/6
f 564/3/6 565/3/6 567/3/6
f 567/3/6 565/3/6 568/3/6
f 568/3/6 565/3/6 569/3/6
f 569/3/6 565/3/6 570/3/6
f 568/3/6 569/3/6 571/3/6
f 571/3/6 569/3/6 572/3/6
f 572/3/6 569/3/6 573/3/6
f 573/3/6 569/3/6 574/3/6
f 572/3/6 573/3/6 575/3/6
f 575/3/6 573/3/6 576/3/6
f 576/3/6 573/3/6 577/3/6
f 577/3/6 573/3/6 578/3/6
f 576/3/6 577/3/6 579/3/6
f 579/3/6 577/3/6 580/3/6
f 580/3/6 577/3/6 581/3/6
f 581/3/6 577/3/6 582/3/6
f 580/3/6 581/3/6 583/3/6
f 583/3/6 581/3/6 584/3/6
f 584/3/6 581/3/6 585/3/6
f 585/3/6 581/3/6 586/3/6
f 584/3/6 585/3/6 587/3/6
f 587/3/6 585/3/6 588/3/6
f 588/3/6 585/3/6 589/3/6
f 589/3/6 585/3/6 590/3/6
f 588/3/6 589/3/6 591/3/6
f 591/3/6 589/3/6 592/3/6
f 592/3/6 589/3/6 593/3/6
f 593/3/6 589/3/6 594/3/6
f 592/3/6 593/3/6 595/3/6
f 595/3/6 593/3/6 596/3/6
f 596/3/6 593/3/6 597/3/6
f 597/3/6 593/3/6 598/3/6
f 596/3/6 597/3/6 599/3/6
f 599/3/6 597/3/6 600/3/6
